# xmcd
#
# Track frame offsets:
#	150
#	9127
#	22923
#	38850
#	49645
#	63177
#	75703
#	88557
#	104900
#	117400
#
# Disc length: 1806 seconds
#
# Revision: 1
# Processed by: cddbd v1.5.1PL2 Copyright (c) Steve Scherf et al.
# Submitted via: audiograbber 1.83.01
#
DISCID=71070c0a
DTITLE=Perrys - Full Circle
DYEAR=1994
DGENRE=Gospel
TTITLE0=I Have A Reason
TTITLE1=Full Circle
TTITLE2=This Is The Last Mile
TTITLE3=The Lord Just Sent An Angel
TTITLE4=This Could Be The Day
TTITLE5=I'm Bound For A City
TTITLE6=Send The Blood
TTITLE7=He's All I Need
TTITLE8=Jacob's Well
TTITLE9=My Mountain
EXTD=
EXTT0=
EXTT1=
EXTT2=
EXTT3=
EXTT4=
EXTT5=
EXTT6=
EXTT7=
EXTT8=
EXTT9=
PLAYORDER=
